<?xml version="1.0" encoding="UTF-8" standalone="no"?> <svg xmlns="http://www.w3.org/2000/svg" viewBox="0 0 64 64"><defs><style>.cls-1{fill:#60758b;}.cls-2{fill:#555b77;}.cls-3{fill:#80cff2;}.cls-4{fill:#fff;}</style></defs><g id="Layer_10" data-name="Layer 10"><path class="cls-1" d="M45.7,14.57,42.42,5.42a1.5,1.5,0,0,0-1.41-1H23a1.5,1.5,0,0,0-1.41,1L18.3,14.57a1.51,1.51,0,0,0,1.41,2H44.29a1.51,1.51,0,0,0,1.41-2Z"/><rect class="cls-2" x="2.5" y="13.57" width="59" height="46" rx="9.71"/><path class="cls-3" d="M32,19.71A16.86,16.86,0,1,0,48.86,36.57,16.89,16.89,0,0,0,32,19.71Z"/><path class="cls-4" d="M40.89,38.07a1.5,1.5,0,0,1-1.5-1.5A7.4,7.4,0,0,0,32,29.18a1.5,1.5,0,0,1,0-3A10.4,10.4,0,0,1,42.39,36.57,1.5,1.5,0,0,1,40.89,38.07Z"/></g></svg>